<?xml version="1.0" encoding="utf-8"?>
<!-- Generator: Adobe Illustrator 26.0.1, SVG Export Plug-In . SVG Version: 6.00 Build 0)  -->
<svg version="1.1" id="Layer_1" xmlns="http://www.w3.org/2000/svg" xmlns:xlink="http://www.w3.org/1999/xlink" x="0px" y="0px"
	 viewBox="0 0 750 346" style="enable-background:new 0 0 750 346;" xml:space="preserve">
<style type="text/css">
	.st0{fill:none;}
	.st1{fill:url(#SVGID_1_);}
	.st2{fill:url(#SVGID_00000094583672434628983650000011827564733682337690_);}
	.st3{fill:none;stroke:#FFFFFF;stroke-linecap:round;stroke-miterlimit:10;}
	.st4{fill:url(#SVGID_00000124127694201041435220000003270865216626073248_);}
	.st5{fill:url(#SVGID_00000045597297179491336730000012437077198186256815_);}
	.st6{fill:url(#SVGID_00000103265214868418506110000005687297818949027223_);}
	.st7{fill:none;stroke:#B8BFD1;stroke-width:2;stroke-miterlimit:10;}
	.st8{opacity:0.5;fill:none;stroke:#B8BFD1;stroke-width:2;stroke-miterlimit:10;enable-background:new    ;}
	.st9{opacity:0.23;fill:none;stroke:#B8BFD1;stroke-width:2;stroke-miterlimit:10;enable-background:new    ;}
	.st10{fill:#FFFFFF;}
	.st11{font-family:'OpenSans-Bold';}
	.st12{font-size:11.5231px;}
	.st13{letter-spacing:1;}
	.st14{fill:#CFDBFF;}
	.st15{fill:#8885F7;}
	.st16{fill:#B4B3FC;}
	.st17{fill:#8385FC;}
	.st18{fill:url(#SVGID_00000013175489381153742740000013482094071681589384_);}
	.st19{fill:url(#SVGID_00000100370493347197387440000003512902757650371997_);}
	.st20{fill:#0E225C;}
	.st21{fill:#A6ABFD;}
	.st22{fill:none;stroke:#B0B1FB;stroke-linecap:round;stroke-miterlimit:10;}
	.st23{fill:url(#SVGID_00000035505355753757298050000014940023754779931789_);}
	.st24{fill:#FA8FA4;}
	.st25{fill:#FA8098;}
	.st26{fill:#0A0A0F;}
	.st27{fill:#2E112E;}
	.st28{fill:#173796;}
	.st29{fill:#6970FB;}
	.st30{fill:#173796;stroke:#0A0A0F;stroke-miterlimit:10;}
	.st31{fill:none;stroke:#9DA5FE;stroke-width:1;stroke-linecap:round;stroke-miterlimit:10.0005;}
	.st32{fill:url(#SVGID_00000081607182751740722170000010643520737422908827_);}
	.st33{fill:url(#SVGID_00000031207536551888859990000015340219285341850502_);}
</style>
<g id="BACKGROUND">
	<rect class="st0" width="750" height="500"/>
</g>
<g id="OBJECTS">
	<g>
		
			<linearGradient id="SVGID_1_" gradientUnits="userSpaceOnUse" x1="20.21" y1="338.4647" x2="414.6" y2="338.4647" gradientTransform="matrix(1 0 0 -1 0 502)">
			<stop  offset="0" style="stop-color:#919DFF"/>
			<stop  offset="1" style="stop-color:#FFE5F5"/>
		</linearGradient>
		<path class="st1" d="M20.2,11c0,0,80.6-19.3,142.3,32.9C247.8,116,191.2,221.7,290,213.1c104.5-9.1,124.6,106.4,124.6,106.4H20.2
			V11z"/>
		<polygon class="st0" points="740.8,-125.3 740.8,331.2 0,352.5 0,-104.1 		"/>
		<g>
			
				<linearGradient id="SVGID_00000070810618418073074360000001497461057337560493_" gradientUnits="userSpaceOnUse" x1="89.8214" y1="425.4178" x2="114.1377" y2="228.6779" gradientTransform="matrix(1 0 0 -1 0 502)">
				<stop  offset="0" style="stop-color:#919DFF"/>
				<stop  offset="1" style="stop-color:#FFE5F5"/>
			</linearGradient>
			<path style="fill:url(#SVGID_00000070810618418073074360000001497461057337560493_);" d="M89.7,311.9c0,0-25.6-206.1,15.3-218.2
				c43.8-12.9,8,218.2,8,218.2H89.7z"/>
			<path class="st3" d="M106,119.8c0,0-5.3,65.5,2.3,138.9"/>
		</g>
		<g>
			
				<linearGradient id="SVGID_00000016754612127413627750000006336849698076877468_" gradientUnits="userSpaceOnUse" x1="-52.1414" y1="369.5849" x2="35.7421" y2="215.1951" gradientTransform="matrix(1 0 0 -1 0 502)">
				<stop  offset="0" style="stop-color:#919DFF"/>
				<stop  offset="1" style="stop-color:#FFE5F5"/>
			</linearGradient>
			<path style="fill:url(#SVGID_00000016754612127413627750000006336849698076877468_);" d="M56.6,311c-0.1,0-6.1-125.5-56.6-158.8
				V311L56.6,311L56.6,311z"/>
			<path class="st3" d="M7.5,210.4c0,0,16.4,37.8,22.8,100.5"/>
		</g>
		
			<linearGradient id="SVGID_00000078745407978012473460000011415219010459024288_" gradientUnits="userSpaceOnUse" x1="227.48" y1="221.7046" x2="267.989" y2="221.7046" gradientTransform="matrix(1 0 0 -1 0 502)">
			<stop  offset="0" style="stop-color:#919DFF"/>
			<stop  offset="1" style="stop-color:#FFE5F5"/>
		</linearGradient>
		<path style="fill:url(#SVGID_00000078745407978012473460000011415219010459024288_);" d="M227.5,311c0,0,11.7-66.3,33.1-61
			c24.3,6-18.9,61-18.9,61H227.5z"/>
		
			<linearGradient id="SVGID_00000052811945288933528790000005196387491688040354_" gradientUnits="userSpaceOnUse" x1="61.1943" y1="333.3851" x2="76.1649" y2="212.2601" gradientTransform="matrix(1 0 0 -1 0 502)">
			<stop  offset="0" style="stop-color:#919DFF"/>
			<stop  offset="1" style="stop-color:#FFE5F5"/>
		</linearGradient>
		<path style="fill:url(#SVGID_00000052811945288933528790000005196387491688040354_);" d="M95.6,311c0,0-6.1-93.9-32.5-131
			c0,0-27,52.2,7.1,130.5L95.6,311z"/>
		<g>
			<polyline class="st7" points="677.7,302.1 681.6,306 677.7,309.9 			"/>
			<polyline class="st8" points="687.9,302.1 691.8,306 687.9,309.9 			"/>
			<polyline class="st9" points="698,302.1 701.9,306 698,309.9 			"/>
		</g>
		<g>
			<text transform="matrix(1 0 0 1 560.4784 212.843)" class="st10 st11 st12 st13">Get Started</text>
		</g>
		<path class="st14" d="M261.1,129L261.1,129c-1.5-1.2-1.8-3.5-0.6-5l3.1-3.9c1.2-1.5,2.8-2.5,4.4-1.2c0,0,2.9,2.9,4.8,2
			c2.2-1,6.4-5.7,8.5-9c1.5-2.4-3.2-6-3.2-6c-1.5-1.2-1-2.7,0.2-4.2l3.1-3.9c1.2-1.5,3.5-1.8,5-0.6l0,0
			C298.4,106.8,277.3,137.5,261.1,129z"/>
		<rect x="418.1" y="292.6" class="st15" width="99.3" height="18.3"/>
		<rect x="429.1" y="281.9" class="st16" width="77.3" height="10.7"/>
		<g>
			<path class="st17" d="M399,277.8H297.5c-1.4,0-2.4-1.3-2-2.6l20.4-75.2c0.8-2.8,3.4-4.8,6.3-4.8h101.5c1.4,0,2.4,1.3,2,2.6
				L405.3,273C404.5,275.9,402,277.8,399,277.8z"/>
			
				<linearGradient id="SVGID_00000033347695594646162700000016495399756553719973_" gradientUnits="userSpaceOnUse" x1="279.576" y1="250.88" x2="409.9139" y2="250.88" gradientTransform="matrix(1 0 0 -1 0 502)">
				<stop  offset="0" style="stop-color:#919DFF"/>
				<stop  offset="1" style="stop-color:#FFE5F5"/>
			</linearGradient>
			<path style="fill:url(#SVGID_00000033347695594646162700000016495399756553719973_);" d="M383.1,292.4H281.7
				c-1.4,0-2.4-1.3-2-2.6l20.4-75.2c0.8-2.8,3.4-4.8,6.3-4.8h101.5c1.4,0,2.4,1.3,2,2.6l-20.4,75.2
				C388.6,290.4,386.1,292.4,383.1,292.4z"/>
			
				<linearGradient id="SVGID_00000140735518466269575820000017781574215534783896_" gradientUnits="userSpaceOnUse" x1="310.8011" y1="190.9097" x2="473.7316" y2="329.9289" gradientTransform="matrix(1 0 0 -1 0 502)">
				<stop  offset="0" style="stop-color:#919DFF"/>
				<stop  offset="1" style="stop-color:#FFE5F5"/>
			</linearGradient>
			<path style="fill:url(#SVGID_00000140735518466269575820000017781574215534783896_);" d="M354.4,238.3l-15.1,61
				c-1.1,4.3-5,7.4-9.4,7.4h-12.4c-1.2,0-2.2,1-2.2,2.2l0,0c0,1.2,1,2.2,2.2,2.2h18.9h4.3h9.4c4,0,7.4-2.7,8.3-6.5l15.6-65.1
				c0.3-1.4-0.7-2.8-2.2-2.8h-15.3C355.6,236.5,354.7,237.3,354.4,238.3z"/>
		</g>
		<path class="st20" d="M549.2,318.5H0V311h549.2c2.1,0,3.8,1.7,3.8,3.8l0,0C553,316.8,551.3,318.5,549.2,318.5z"/>
		<path class="st10" d="M37.9,110.2c-10.2,2.8-16.2,13.2-13.4,23.4c1.3,4.6,4.1,8.4,7.8,10.8l0,8.6l6-5.9c3.1,0.8,6.4,0.8,9.6-0.1
			c10.2-2.8,16.2-13.2,13.4-23.4C58.5,113.4,48.1,107.4,37.9,110.2z M36.9,131.9c-0.9,0.2-1.8-0.3-2.1-1.2c-0.2-0.9,0.3-1.9,1.2-2.1
			c0.9-0.2,1.8,0.3,2.1,1.2C38.3,130.8,37.8,131.7,36.9,131.9z M43.3,130.2c-0.9,0.2-1.8-0.3-2.1-1.2c-0.2-0.9,0.3-1.9,1.2-2.1
			s1.8,0.3,2.1,1.2C44.8,129,44.2,129.9,43.3,130.2z M49.8,128.4c-0.9,0.2-1.8-0.3-2.1-1.2c-0.2-0.9,0.3-1.9,1.2-2.1
			c0.9-0.2,1.8,0.3,2.1,1.2C51.2,127.2,50.7,128.2,49.8,128.4z"/>
		<g>
			<path class="st10" d="M250,17.4l0.6-2.4c1.4-5.9,7.2-9.6,13.1-8.2l0,0c5.9,1.4,9.6,7.2,8.2,13.1l0-0.1c-1.2,5.6-3.9,8.6-8,11.2
				l-2.1,1.3c-2.6,1.6-4.5,4.2-5.2,7.3l-1,4.3"/>
			<g>
				<path class="st14" d="M255.1,46.4c-1.4-0.3-2.2-1.7-1.9-3.1l1-4.3c0.9-3.7,3.1-6.8,6.3-8.9l2.1-1.3c3.3-2.1,5.7-4.4,6.8-9.5l0,0
					c1-4.5-1.8-9-6.3-10.1c-4.5-1-9,1.8-10.1,6.3l-0.6,2.4c-0.3,1.4-1.7,2.2-3.1,1.9c-1.4-0.3-2.2-1.7-1.9-3.1l0.6-2.4
					c1.7-7.3,8.9-11.8,16.2-10.1c7.2,1.7,11.8,8.9,10.2,16.1l0,0c-1.3,5.8-4,9.6-9.1,12.8l-2.1,1.3c-2.1,1.3-3.5,3.3-4,5.7l-1,4.3
					C257.9,45.9,256.5,46.7,255.1,46.4z"/>
				<path class="st14" d="M256.7,52.9c-0.4,1.5-1.9,2.4-3.4,2.1c-1.5-0.4-2.5-1.9-2.1-3.4s1.9-2.4,3.4-2.1
					C256.1,49.9,257,51.4,256.7,52.9z"/>
			</g>
		</g>
		<g>
			<path class="st10" d="M124.4,25.6L124.4,25.6c1.1,3.7,0.5,6.4-1,9.1l-0.8,1.4c-1,1.8-1.2,3.9-0.6,5.9l0.8,2.9l-2.6-3
				c-0.5-2.2-0.2-4.6,0.9-6.6l0.8-1.4c1.2-2.3,1.9-4.5,0.9-7.8c-0.4-1.5-1.4-2.7-2.7-3.4c-1.3-0.7-2.8-0.9-4.3-0.5
				c-3,0.9-4.7,4-3.8,7l0.5,1.6c0.2,0.7,0,1.3-0.5,1.8l-1.1-1.3l-0.5-1.6c-1.2-3.9,1.1-8,5-9.1c1.9-0.6,3.9-0.3,5.6,0.6
				C122.5,22.2,123.8,23.7,124.4,25.6z"/>
			<g>
				<path class="st10" d="M126,25.1l0.1,0.2c1.1,3.7,0.7,6.8-1.2,10.2l-0.8,1.4c-0.8,1.4-0.9,3.1-0.5,4.6l0.8,2.9
					c0.3,0.9-0.2,1.9-1.1,2.1c-0.9,0.3-1.9-0.2-2.1-1.1l-0.8-2.9c-0.1-0.2-0.1-0.4-0.2-0.6c-0.5-2.2-0.2-4.6,0.9-6.6l0.8-1.4
					c1.2-2.3,1.9-4.5,0.9-7.8c-0.4-1.5-1.4-2.7-2.7-3.4c-1.3-0.7-2.8-0.9-4.3-0.5c-3,0.9-4.7,4-3.8,7l0.5,1.6c0.2,0.7,0,1.3-0.5,1.8
					c-0.2,0.2-0.4,0.3-0.7,0.4c-0.9,0.3-1.8-0.2-2.1-1.1l-0.5-1.6c-1.4-4.8,1.3-9.8,6.1-11.2C119.6,17.7,124.6,20.4,126,25.1z"/>
				<path class="st10" d="M126.3,49.9c0.3,1-0.3,2-1.3,2.3c-1,0.3-2-0.3-2.3-1.3c-0.3-1,0.3-2,1.3-2.3C125,48.4,126,48.9,126.3,49.9
					z"/>
			</g>
		</g>
		<g>
			<polygon class="st10" points="66.1,68.3 43,62.1 47.1,46.9 56.6,57.6 70.2,53.2 			"/>
			<polygon class="st10" points="60.2,44.2 51.7,41.9 50.1,47.7 57.1,55.7 67.3,52.4 68.8,46.6 			"/>
			
				<rect x="59.2" y="40.2" transform="matrix(0.2621 -0.965 0.965 0.2621 -1.3967 92.0275)" class="st21" width="0.5" height="13.5"/>
			
				<rect x="58.6" y="42.6" transform="matrix(0.2621 -0.965 0.965 0.2621 -4.2074 93.1699)" class="st21" width="0.5" height="13.5"/>
		</g>
		<path class="st3" d="M42.9,3.5c0,1.7-1.3,3-3,3c-1.7,0-3-1.4-3-3s1.3-3,3-3C41.5,0.5,42.9,1.8,42.9,3.5z"/>
		<path class="st3" d="M169.4,46.9c0,1.7-1.4,3-3,3c-1.7,0-3-1.4-3-3s1.4-3,3-3C168,43.9,169.4,45.3,169.4,46.9z"/>
		<path class="st22" d="M247.5,86.2c0,1.7-1.4,3-3,3s-3-1.4-3-3s1.4-3,3-3C246.1,83.1,247.5,84.5,247.5,86.2z"/>
		<g>
			
				<linearGradient id="SVGID_00000077320535041806816610000010011440303006699683_" gradientUnits="userSpaceOnUse" x1="230.2479" y1="363.1111" x2="206.905" y2="192.9668" gradientTransform="matrix(1 0 0 -1 0 502)">
				<stop  offset="0" style="stop-color:#919DFF"/>
				<stop  offset="1" style="stop-color:#FFE5F5"/>
			</linearGradient>
			<path style="fill:url(#SVGID_00000077320535041806816610000010011440303006699683_);" d="M191.1,311c0,0-2-102.7,39.2-141.9
				c0,0,19.2,48.4-9.9,141.9H191.1z"/>
			<path class="st3" d="M220.8,200c0,0,3,41.1-11.6,102.4"/>
		</g>
		<g>
			<polygon class="st24" points="144.5,174 143.9,182.4 143.6,185.2 143,194.2 124.3,194.5 126.4,176 127.5,166.5 128,161.8 			"/>
			<path class="st25" d="M143.9,182.4l-0.2,2.8c-11,0-16-15.1-16.4-16.4l0.3-2.4C133.2,178.4,143.9,182.4,143.9,182.4z"/>
			<path class="st24" d="M246.1,208.8c0,0,8.7-9.7,15.7-10.4c2.6-0.3-1.8,5.2-1.8,5.2h29.5c0,0-1.1,3.6-3.3,5.2s-26.2,8.7-26.2,8.7
				L246.1,208.8z"/>
			<path class="st24" d="M156.7,140.6c2.5,1.9,6.8,4.1,7.4,7.3c0.5,2.8-5.1,12.1-2.4,15.7c5,6.7-5.3,16.1-8.9,18.6
				c-8.8,6-31.2-11.7-23.6-34.8C134.9,130,149.3,135,156.7,140.6z"/>
			<path class="st26" d="M130.3,137.5c0,0,23.6,16.3,35.2,9.4s0.6-20.6,0.6-20.6s-2.6,4.8-11,2C146.5,125.5,130.9,123.8,130.3,137.5
				z"/>
			<path class="st26" d="M140.4,135.8c0,0-5.6-8-13-3.3c-5.7,3.6-4.4,23.4,0.7,30.9C128.1,163.4,128.2,140.1,140.4,135.8z"/>
			<path class="st26" d="M144.3,140.8c0,0-4.7,11.2-10,14c0,0,0.5,6.1-5,6.1c0,0,1.7-1.9-0.1-6.2c-0.4-0.9-0.7-1.9-0.9-2.9
				c-1.1-5.8,4-16.6,9.7-16C143.7,136.6,144.3,140.8,144.3,140.8z"/>
			<path class="st24" d="M129.3,163.9c0,0-4,0.5-5.6-2.9c-2.9-5.9,3.5-9.4,5.5-6.3L129.3,163.9z"/>
			<path class="st10" d="M144.8,167c0,0,2.1,9.9,7.5,7.9c3.6-1.4,5.9-6.7,5.9-6.7L144.8,167z"/>
			<path class="st27" d="M147.2,156.8c-0.1,1-0.5,1.8-0.9,1.8s-0.7-0.9-0.6-1.9s0.5-1.8,0.9-1.8S147.3,155.8,147.2,156.8z"/>
			<path class="st27" d="M159.4,157.8c-0.1,1-0.5,1.8-0.9,1.8s-0.7-0.9-0.6-1.9s0.5-1.8,0.9-1.8S159.4,156.8,159.4,157.8z"/>
			<path class="st28" d="M85.8,311c0,0-26.2-83.8,0.8-102.4c27.1-18.6,45-22.1,72.7-11c27.7,11.2,13.2,113.4,13.2,113.4L85.8,311
				L85.8,311z"/>
			<path class="st28" d="M150.7,235.3l43.2,39.2c11.6,10.6,30.1,7.5,37.8-6.2l28.3-50.9l-13.9-8.7c0,0-27.9,32.7-32.7,30.1
				c-4.8-2.6-25.3-47.7-79-47.5C108.6,191.3,150.7,235.3,150.7,235.3z"/>
			<path class="st28" d="M86.6,208.6c0,0-27.2,21.2-43.7,62.5c-7.6,19.1,6.4,39.9,27,39.9h60.6l-1.1-18.8l-42.3-21.6
				C87.1,270.6,131.3,232.1,86.6,208.6z"/>
			<path class="st29" d="M133.1,153.7c0,0,2.5-22.2,16.9-26.5c0,0-4.1-3.5-9-0.7c0,0-11.4,6.1-13.3,27.6L133.1,153.7z"/>
			<g>
				<path class="st26" d="M146.3,179.3c-1.7-0.6-6-2.6-10-6.5c-5.1-5-5.3-11.8-5.3-12.1l2.1-0.1c0,0.1,0.4,6.5,4.9,10.9
					c4.6,4.5,9.6,6,9.7,6l-0.6,2C147,179.5,146.7,179.5,146.3,179.3z"/>
				<path class="st26" d="M145.5,176.8c-0.4,1,0.4,2.4,1.4,2.8c1,0.4,2.2-0.2,2.5-1.2c0.4-1-0.2-2.2-1.2-2.5
					C147.3,175.4,145.9,175.8,145.5,176.8z"/>
			</g>
			<ellipse class="st28" cx="128.1" cy="157.8" rx="9.3" ry="10.4"/>
			<ellipse class="st15" cx="125.1" cy="157.8" rx="8.3" ry="9.2"/>
			<path class="st10" d="M118.8,192.7l6.8-9.8l11.8,8.4l6.3-6l6,7.3l-6.5,7.6l-5.7-6.4l-5.1,7.5
				C132.2,201.2,123.9,198.5,118.8,192.7z"/>
			<path class="st30" d="M101.7,248.4L87.3,271c-2.1,3.3-0.6,7.6,3.1,9l41.9,15.2"/>
			<path class="st24" d="M130.5,311l1.8-12.6c0,0,21.6,6.2,22.9,7.4c1.4,1.1,5.3,5.3,5.3,5.3L130.5,311L130.5,311z"/>
			<line class="st3" x1="86.9" y1="109.8" x2="85.8" y2="116.9"/>
		</g>
		<line class="st3" x1="100.7" y1="70.8" x2="92" y2="69.4"/>
		<line class="st22" x1="316.9" y1="112.3" x2="315.5" y2="121"/>
		<line class="st22" x1="320.5" y1="117.4" x2="311.9" y2="116"/>
		<rect x="18.4" y="81.9" class="st3" width="7" height="7"/>
		<rect x="201" y="0.5" transform="matrix(0.6536 -0.7569 0.7569 0.6536 67.8361 156.1772)" class="st31" width="7" height="7"/>
		<path class="st10" d="M286.1,266.4h-30.9c-1.9,0-3.5,1.5-3.5,3.5v20.2c0,4.5,1.4,9,4,12.7l3.8,5.5c1.2,1.7,3.1,2.7,5.1,2.7h12.1
			c2.1,0,4-1,5.1-2.7l4.4-6.6c2.1-3.2,3.3-6.9,3.3-10.8v-21.1C289.5,267.9,288,266.4,286.1,266.4z"/>
		<path class="st10" d="M266.7,295.7h-17.2c-5.8,0-10.6-4.7-10.6-10.6s4.7-10.6,10.6-10.6h17.2V295.7z M249.4,279.3
			c-3.2,0-5.9,2.6-5.9,5.9s2.6,5.9,5.9,5.9H262v-11.8H249.4z"/>
		
			<linearGradient id="SVGID_00000014613287367398628730000017612106511562472343_" gradientUnits="userSpaceOnUse" x1="267.2307" y1="264.595" x2="278.3131" y2="264.595" gradientTransform="matrix(1 0 0 -1 0 502)">
			<stop  offset="0" style="stop-color:#919DFF"/>
			<stop  offset="1" style="stop-color:#FFE5F5"/>
		</linearGradient>
		<path style="fill:url(#SVGID_00000014613287367398628730000017612106511562472343_);" d="M271.7,253.3c0,0-6.4-5.1-3.9-13
			c2.4-7.9,7.6-13.2,3.9-18.8c0,0,9.2,1.4,5.9,10.7C274.3,241.5,268.9,247.3,271.7,253.3z"/>
		
			<linearGradient id="SVGID_00000004504182931245520990000015977394465849381018_" gradientUnits="userSpaceOnUse" x1="256.1859" y1="250.75" x2="270.2273" y2="250.75" gradientTransform="matrix(1 0 0 -1 0 502)">
			<stop  offset="0" style="stop-color:#919DFF"/>
			<stop  offset="1" style="stop-color:#FFE5F5"/>
		</linearGradient>
		<path style="fill:url(#SVGID_00000004504182931245520990000015977394465849381018_);" d="M265.4,237.4c0,0-6.2,9.1,0,15.9
			c7.4,8.1,4.1,11.8,4.1,11.8s-2.3-3.6-8.4-7.6C255.8,254,251.8,242.6,265.4,237.4z"/>
	</g>
</g>
</svg>
