<?xml version="1.0" encoding="utf-8"?>
<!-- Generator: Adobe Illustrator 26.0.1, SVG Export Plug-In . SVG Version: 6.00 Build 0)  -->
<svg version="1.1" xmlns="http://www.w3.org/2000/svg" xmlns:xlink="http://www.w3.org/1999/xlink" x="0px" y="0px"
	 viewBox="0 0 750 500" style="enable-background:new 0 0 750 500;" xml:space="preserve">
<style type="text/css">
	.st0{fill:none;}
	.st1{fill:url(#SVGID_1_);}
	.st2{fill:url(#SVGID_00000062874333375032469410000004962135342934679682_);}
	.st3{fill:none;stroke:#FFFFFF;stroke-linecap:round;stroke-miterlimit:10;}
	.st4{fill:url(#SVGID_00000180334034923143216130000012578018262842931881_);}
	.st5{fill:url(#SVGID_00000083775093081005544580000000449068658097771144_);}
	.st6{fill:url(#SVGID_00000087381020426348900190000012207641051971774639_);}
	.st7{fill:none;stroke:#B8BFD1;stroke-width:2;stroke-miterlimit:10;}
	.st8{opacity:0.5;fill:none;stroke:#B8BFD1;stroke-width:2;stroke-miterlimit:10;}
	.st9{opacity:0.23;fill:none;stroke:#B8BFD1;stroke-width:2;stroke-miterlimit:10;}
	.st10{fill:#FFFFFF;}
	.st11{font-family:'OpenSans-Bold';}
	.st12{font-size:11.5231px;}
	.st13{letter-spacing:2;}
	.st14{fill:#CFDBFF;}
	.st15{fill:#8885F7;}
	.st16{fill:#B4B3FC;}
	.st17{fill:#8385FC;}
	.st18{fill:url(#SVGID_00000151520350531502652460000000343729922022527117_);}
	.st19{fill:url(#SVGID_00000070118838783539564890000004341961491923937430_);}
	.st20{fill:#0E225C;}
	.st21{fill:#A6ABFD;}
	.st22{fill:none;stroke:#B0B1FB;stroke-linecap:round;stroke-miterlimit:10;}
	.st23{fill:url(#SVGID_00000005264606843140923640000009256028017259291281_);}
	.st24{fill:#FA8FA4;}
	.st25{fill:#FA8098;}
	.st26{fill:#0A0A0F;}
	.st27{fill:#2E112E;}
	.st28{fill:#173796;}
	.st29{fill:#6970FB;}
	.st30{fill:#173796;stroke:#0A0A0F;stroke-miterlimit:10;}
	.st31{fill:none;stroke:#9DA5FE;stroke-linecap:round;stroke-miterlimit:10;}
	.st32{fill:url(#SVGID_00000105414163447606754560000002149422587814121918_);}
	.st33{fill:url(#SVGID_00000134220164056387595870000010795327944775003829_);}
</style>
<g id="BACKGROUND">
	<rect class="st0" width="750" height="500"/>
</g>
<g id="OBJECTS">
	<g>
		<linearGradient id="SVGID_1_" gradientUnits="userSpaceOnUse" x1="33.2772" y1="330.7993" x2="427.6657" y2="330.7993">
			<stop  offset="0" style="stop-color:#919DFF"/>
			<stop  offset="1" style="stop-color:#FFE5F5"/>
		</linearGradient>
		<path class="st1" d="M33.28,178.25c0,0,80.6-19.27,142.28,32.89c85.29,72.14,28.68,177.83,127.47,169.24
			c104.49-9.09,124.64,106.44,124.64,106.44H33.28V178.25z"/>
		<polygon class="st0" points="753.85,41.92 753.85,498.51 13.07,519.74 13.07,63.14 		"/>
		<g>
			
				<linearGradient id="SVGID_00000164489421219350316440000009033685145872267163_" gradientUnits="userSpaceOnUse" x1="102.8872" y1="243.8427" x2="127.2035" y2="440.5826">
				<stop  offset="0" style="stop-color:#919DFF"/>
				<stop  offset="1" style="stop-color:#FFE5F5"/>
			</linearGradient>
			<path style="fill:url(#SVGID_00000164489421219350316440000009033685145872267163_);" d="M102.74,479.12
				c0,0-25.57-206.14,15.3-218.16c43.77-12.88,8.01,218.16,8.01,218.16H102.74z"/>
			<path class="st3" d="M119.04,287.09c0,0-5.26,65.53,2.35,138.91"/>
		</g>
		<g>
			
				<linearGradient id="SVGID_00000052787684277013018020000001497071566880187053_" gradientUnits="userSpaceOnUse" x1="-39.0727" y1="299.6759" x2="48.8108" y2="454.0657">
				<stop  offset="0" style="stop-color:#919DFF"/>
				<stop  offset="1" style="stop-color:#FFE5F5"/>
			</linearGradient>
			<path style="fill:url(#SVGID_00000052787684277013018020000001497071566880187053_);" d="M69.68,478.23
				c-0.12,0-6.11-125.49-56.61-158.83v158.83H69.68z"/>
			<path class="st3" d="M20.6,377.7c0,0,16.4,37.84,22.8,100.53"/>
		</g>
		
			<linearGradient id="SVGID_00000108280485982936704920000008616360520006743195_" gradientUnits="userSpaceOnUse" x1="240.5507" y1="447.5565" x2="281.0589" y2="447.5565">
			<stop  offset="0" style="stop-color:#919DFF"/>
			<stop  offset="1" style="stop-color:#FFE5F5"/>
		</linearGradient>
		<path style="fill:url(#SVGID_00000108280485982936704920000008616360520006743195_);" d="M240.55,478.23
			c0,0,11.66-66.33,33.08-61.05c24.33,5.99-18.89,61.05-18.89,61.05H240.55z"/>
		
			<linearGradient id="SVGID_00000150062108468806451670000018266842254411836846_" gradientUnits="userSpaceOnUse" x1="74.2579" y1="335.8757" x2="89.2285" y2="457.0007">
			<stop  offset="0" style="stop-color:#919DFF"/>
			<stop  offset="1" style="stop-color:#FFE5F5"/>
		</linearGradient>
		<path style="fill:url(#SVGID_00000150062108468806451670000018266842254411836846_);" d="M108.68,478.23
			c0,0-6.08-93.88-32.52-131.02c0,0-27.01,52.16,7.14,130.49L108.68,478.23z"/>
		<g>
			<polyline class="st7" points="690.79,469.41 694.66,473.28 690.79,477.15 			"/>
			<polyline class="st8" points="700.95,469.41 704.82,473.28 700.95,477.15 			"/>
			<polyline class="st9" points="711.1,469.41 714.97,473.28 711.1,477.15 			"/>
		</g>
		<g>
			<text transform="matrix(1 0 0 1 573.5483 380.1031)" class="st10 st11 st12 st13">Get Started</text>
		</g>
		<path class="st14" d="M274.21,296.26L274.21,296.26c-1.55-1.23-1.81-3.48-0.59-5.03l3.06-3.87c1.23-1.55,2.84-2.45,4.39-1.22
			c0,0,2.88,2.85,4.8,1.97c2.18-1,6.38-5.66,8.47-9.03c1.47-2.37-3.21-5.99-3.21-5.99c-1.55-1.23-1.03-2.69,0.2-4.24l3.06-3.87
			c1.23-1.55,3.48-1.81,5.03-0.59l0,0C311.52,274.01,290.36,304.77,274.21,296.26z"/>
		<rect x="431.16" y="459.91" class="st15" width="99.27" height="18.33"/>
		<rect x="442.15" y="449.19" class="st16" width="77.3" height="10.71"/>
		<g>
			<path class="st17" d="M412.09,445.11H310.62c-1.37,0-2.37-1.3-2.01-2.63l20.43-75.16c0.77-2.84,3.35-4.81,6.29-4.81H436.8
				c1.37,0,2.37,1.3,2.01,2.63l-20.43,75.16C417.61,443.14,415.03,445.11,412.09,445.11z"/>
			
				<linearGradient id="SVGID_00000138534831330083173010000004427867207937358271_" gradientUnits="userSpaceOnUse" x1="292.6468" y1="418.38" x2="422.9874" y2="418.38">
				<stop  offset="0" style="stop-color:#919DFF"/>
				<stop  offset="1" style="stop-color:#FFE5F5"/>
			</linearGradient>
			<path style="fill:url(#SVGID_00000138534831330083173010000004427867207937358271_);" d="M396.2,459.68H294.73
				c-1.37,0-2.37-1.3-2.01-2.63l20.43-75.16c0.77-2.84,3.35-4.81,6.29-4.81H420.9c1.37,0,2.37,1.3,2.01,2.63l-20.43,75.16
				C401.72,457.71,399.14,459.68,396.2,459.68z"/>
			
				<linearGradient id="SVGID_00000109712706590923675810000004418344224138213814_" gradientUnits="userSpaceOnUse" x1="323.868" y1="478.3467" x2="486.7985" y2="339.3275">
				<stop  offset="0" style="stop-color:#919DFF"/>
				<stop  offset="1" style="stop-color:#FFE5F5"/>
			</linearGradient>
			<path style="fill:url(#SVGID_00000109712706590923675810000004418344224138213814_);" d="M367.51,405.52l-15.07,60.96
				c-1.07,4.34-4.97,7.39-9.44,7.39h-12.39c-1.21,0-2.19,0.98-2.19,2.19l0,0c0,1.21,0.98,2.19,2.19,2.19h18.92h4.26h9.42
				c3.95,0,7.39-2.71,8.31-6.55l15.61-65.1c0.34-1.41-0.73-2.76-2.18-2.76h-15.29C368.65,403.81,367.75,404.52,367.51,405.52z"/>
		</g>
		<path class="st20" d="M562.24,485.78H13.07v-7.55h549.17c2.09,0,3.78,1.69,3.78,3.78l0,0
			C566.02,484.09,564.33,485.78,562.24,485.78z"/>
		<path class="st10" d="M50.98,277.43c-10.16,2.76-16.16,13.23-13.4,23.39c1.26,4.63,4.12,8.37,7.81,10.83l-0.05,8.58l5.99-5.92
			c3.08,0.76,6.36,0.8,9.64-0.09c10.16-2.76,16.16-13.23,13.4-23.39C71.6,280.68,61.13,274.68,50.98,277.43z M49.94,299.21
			c-0.9,0.24-1.84-0.29-2.08-1.19c-0.25-0.91,0.29-1.85,1.19-2.09c0.91-0.25,1.84,0.29,2.09,1.2
			C51.37,298.03,50.85,298.96,49.94,299.21z M56.41,297.45c-0.91,0.25-1.84-0.29-2.08-1.19c-0.25-0.91,0.28-1.85,1.19-2.09
			s1.84,0.29,2.09,1.2C57.85,296.27,57.32,297.2,56.41,297.45z M62.89,295.69c-0.91,0.25-1.84-0.29-2.08-1.19
			c-0.25-0.91,0.28-1.85,1.19-2.09c0.9-0.24,1.84,0.29,2.09,1.2C64.32,294.51,63.79,295.45,62.89,295.69z"/>
		<g>
			<path class="st10" d="M263.1,184.7l0.56-2.42c1.36-5.9,7.25-9.58,13.14-8.22h0c5.9,1.36,9.58,7.25,8.22,13.14l0.02-0.09
				c-1.22,5.6-3.93,8.65-7.96,11.17l-2.1,1.31c-2.62,1.64-4.49,4.25-5.18,7.27l-1,4.33"/>
			<g>
				<path class="st14" d="M268.22,213.68c-1.37-0.32-2.23-1.69-1.91-3.06l1-4.33c0.85-3.7,3.1-6.84,6.31-8.86l2.1-1.31
					c3.28-2.05,5.7-4.45,6.81-9.49l0,0c1.04-4.52-1.79-9.04-6.3-10.08c-4.52-1.04-9.04,1.79-10.08,6.3l-0.56,2.42
					c-0.32,1.37-1.69,2.23-3.06,1.91c-1.37-0.32-2.23-1.69-1.91-3.06l0.56-2.42c1.67-7.26,8.94-11.8,16.2-10.13
					c7.22,1.67,11.75,8.86,10.16,16.08l0,0c-1.26,5.76-3.98,9.59-9.1,12.79l-2.1,1.31c-2.06,1.29-3.5,3.31-4.05,5.68l-1,4.33
					C270.96,213.14,269.59,214,268.22,213.68z"/>
				<path class="st14" d="M269.73,220.21c-0.35,1.51-1.85,2.45-3.36,2.1c-1.51-0.35-2.45-1.85-2.1-3.36
					c0.35-1.51,1.85-2.45,3.36-2.1C269.14,217.2,270.08,218.71,269.73,220.21z"/>
			</g>
		</g>
		<g>
			<path class="st10" d="M137.44,192.87l0.02,0.07c1.1,3.63,0.52,6.29-0.99,9.06l-0.79,1.45c-0.99,1.81-1.21,3.95-0.63,5.93
				l0.84,2.86l-2.64-2.97c-0.51-2.25-0.2-4.58,0.93-6.63l0.79-1.45c1.23-2.28,1.86-4.47,0.85-7.77c-0.44-1.49-1.44-2.66-2.7-3.35
				c-1.27-0.68-2.79-0.89-4.28-0.46c-2.98,0.88-4.69,4.01-3.81,6.98l0.47,1.59c0.2,0.66-0.02,1.34-0.5,1.76l-1.13-1.28l-0.47-1.59
				c-1.15-3.89,1.08-7.97,4.96-9.11c1.94-0.57,3.93-0.3,5.57,0.6C135.57,189.46,136.86,190.95,137.44,192.87z"/>
			<g>
				<path class="st10" d="M139.07,192.37l0.06,0.2c1.09,3.68,0.74,6.76-1.16,10.24l-0.79,1.45c-0.78,1.43-0.95,3.08-0.49,4.64
					l0.84,2.86c0.27,0.91-0.25,1.85-1.15,2.12c-0.91,0.27-1.85-0.25-2.12-1.15l-0.84-2.86c-0.06-0.2-0.11-0.4-0.16-0.59
					c-0.51-2.25-0.2-4.58,0.93-6.63l0.79-1.45c1.23-2.28,1.86-4.47,0.85-7.77c-0.44-1.49-1.44-2.66-2.7-3.35
					c-1.27-0.68-2.79-0.89-4.28-0.46c-2.98,0.88-4.69,4.01-3.81,6.98l0.47,1.59c0.2,0.66-0.02,1.34-0.5,1.76
					c-0.18,0.16-0.4,0.29-0.65,0.36c-0.9,0.27-1.85-0.25-2.12-1.15l-0.47-1.59c-1.41-4.78,1.33-9.81,6.12-11.22
					C132.63,184.95,137.63,187.64,139.07,192.37z"/>
				<path class="st10" d="M139.4,217.18c0.29,0.99-0.27,2.03-1.27,2.33c-0.99,0.29-2.03-0.27-2.33-1.27
					c-0.29-0.99,0.27-2.03,1.27-2.33C138.06,215.62,139.1,216.19,139.4,217.18z"/>
			</g>
		</g>
		<g>
			<polygon class="st10" points="79.18,235.59 56.07,229.32 60.18,214.18 69.68,224.89 83.29,220.46 			"/>
			<polygon class="st10" points="73.32,211.51 64.72,209.18 63.14,214.99 70.2,222.97 80.33,219.66 81.91,213.84 			"/>
			
				<rect x="65.77" y="213.95" transform="matrix(0.965 0.2621 -0.2621 0.965 58.6846 -11.5251)" class="st21" width="13.55" height="0.49"/>
			
				<rect x="65.11" y="216.36" transform="matrix(0.965 0.2621 -0.2621 0.965 59.2949 -11.2686)" class="st21" width="13.55" height="0.49"/>
		</g>
		<path class="st3" d="M55.97,170.76c0,1.67-1.35,3.02-3.02,3.02c-1.67,0-3.02-1.35-3.02-3.02c0-1.67,1.35-3.02,3.02-3.02
			C54.62,167.74,55.97,169.09,55.97,170.76z"/>
		<path class="st3" d="M182.47,214.19c0,1.67-1.35,3.02-3.02,3.02c-1.67,0-3.02-1.35-3.02-3.02c0-1.67,1.35-3.02,3.02-3.02
			C181.12,211.17,182.47,212.52,182.47,214.19z"/>
		<path class="st22" d="M260.54,253.44c0,1.67-1.35,3.02-3.02,3.02c-1.67,0-3.02-1.35-3.02-3.02c0-1.67,1.35-3.02,3.02-3.02
			C259.19,250.41,260.54,251.77,260.54,253.44z"/>
		<g>
			
				<linearGradient id="SVGID_00000114037444723013103600000016903946357343993519_" gradientUnits="userSpaceOnUse" x1="243.3196" y1="306.1491" x2="219.9767" y2="476.2935">
				<stop  offset="0" style="stop-color:#919DFF"/>
				<stop  offset="1" style="stop-color:#FFE5F5"/>
			</linearGradient>
			<path style="fill:url(#SVGID_00000114037444723013103600000016903946357343993519_);" d="M204.16,478.23
				c0,0-2-102.66,39.21-141.94c0,0,19.19,48.41-9.86,141.94H204.16z"/>
			<path class="st3" d="M233.82,367.3c0,0,3.01,41.13-11.61,102.43"/>
		</g>
		<g>
			<polygon class="st24" points="157.58,341.24 156.93,349.71 156.71,352.49 156.03,361.42 137.33,361.75 139.45,343.25 
				140.55,333.72 141.08,329.11 			"/>
			<path class="st25" d="M156.93,349.71l-0.22,2.77c-11.01,0-16.04-15.13-16.44-16.35l0.28-2.42
				C146.24,345.63,156.93,349.71,156.93,349.71z"/>
			<path class="st24" d="M259.16,376.01c0,0,8.73-9.71,15.74-10.44c2.59-0.27-1.8,5.2-1.8,5.2h29.49c0,0-1.1,3.62-3.29,5.24
				c-2.19,1.62-26.2,8.71-26.2,8.71L259.16,376.01z"/>
			<path class="st24" d="M169.79,307.86c2.54,1.94,6.78,4.15,7.39,7.29c0.54,2.81-5.13,12.14-2.44,15.74
				c4.99,6.69-5.27,16.14-8.91,18.65c-8.75,6.03-31.2-11.73-23.6-34.75C147.99,297.29,162.41,302.23,169.79,307.86z"/>
			<path class="st26" d="M143.33,304.8c0,0,23.56,16.31,35.18,9.37c11.62-6.94,0.59-20.63,0.59-20.63s-2.58,4.8-11.04,2.02
				C159.6,292.77,143.95,291.02,143.33,304.8z"/>
			<path class="st26" d="M153.46,303.09c0,0-5.56-7.99-13.01-3.31c-5.67,3.57-4.44,23.36,0.67,30.9
				C141.13,330.68,141.25,307.41,153.46,303.09z"/>
			<path class="st26" d="M157.34,308.09c0,0-4.66,11.23-9.98,14.04c0,0,0.48,6.08-5.01,6.1c0,0,1.66-1.91-0.12-6.17
				c-0.38-0.9-0.68-1.87-0.87-2.89c-1.07-5.82,4-16.59,9.69-15.97C156.74,303.83,157.34,308.09,157.34,308.09z"/>
			<path class="st24" d="M142.41,331.2c0,0-4.01,0.45-5.64-2.85c-2.91-5.88,3.47-9.42,5.47-6.29L142.41,331.2z"/>
			<path class="st10" d="M157.83,334.27c0,0,2.07,9.86,7.48,7.85c3.62-1.35,5.9-6.74,5.9-6.74L157.83,334.27z"/>
			<path class="st27" d="M160.27,324.03c-0.08,1.02-0.47,1.82-0.88,1.79c-0.41-0.03-0.68-0.88-0.6-1.9
				c0.08-1.02,0.47-1.82,0.88-1.79C160.08,322.16,160.35,323.01,160.27,324.03z"/>
			<path class="st27" d="M172.42,325.11c-0.08,1.02-0.47,1.82-0.88,1.79c-0.41-0.03-0.68-0.88-0.6-1.9
				c0.08-1.02,0.47-1.82,0.88-1.79C172.23,323.24,172.5,324.09,172.42,325.11z"/>
			<path class="st28" d="M98.86,478.23c0,0-26.24-83.77,0.85-102.38c27.1-18.61,45-22.15,72.72-10.98
				c27.73,11.17,13.25,113.36,13.25,113.36H98.86z"/>
			<path class="st28" d="M163.8,402.58l43.23,39.23c11.65,10.57,30.1,7.53,37.75-6.21l28.32-50.89l-13.94-8.71
				c0,0-27.88,32.68-32.68,30.06c-4.79-2.61-25.33-47.66-79.03-47.54C121.7,358.59,163.8,402.58,163.8,402.58z"/>
			<path class="st28" d="M99.71,375.85c0,0-27.18,21.16-43.68,62.47c-7.63,19.12,6.38,39.91,26.97,39.91h60.55l-1.15-18.78
				l-42.27-21.57C100.14,437.88,144.35,399.39,99.71,375.85z"/>
			<path class="st29" d="M146.13,320.94c0,0,2.52-22.21,16.9-26.5c0,0-4.1-3.5-9.04-0.68c0,0-11.38,6.12-13.33,27.62L146.13,320.94z
				"/>
			<g>
				<path class="st26" d="M159.37,346.57c-1.67-0.6-6.05-2.58-10.03-6.47c-5.13-5-5.27-11.81-5.28-12.11l2.09-0.09
					c0,0.06,0.35,6.51,4.87,10.92c4.65,4.53,9.61,5.96,9.66,5.98l-0.57,2.02C160.08,346.8,159.81,346.73,159.37,346.57z"/>
				<path class="st26" d="M158.61,344.06c-0.37,1.03,0.39,2.38,1.41,2.75c1.03,0.37,2.16-0.17,2.53-1.19
					c0.37-1.03-0.17-2.16-1.19-2.53C160.33,342.71,158.98,343.03,158.61,344.06z"/>
			</g>
			<ellipse class="st28" cx="141.16" cy="325.05" rx="9.28" ry="10.35"/>
			<ellipse class="st15" cx="138.17" cy="325.05" rx="8.26" ry="9.22"/>
			<path class="st10" d="M131.88,359.98l6.78-9.83l11.78,8.38l6.28-6.04l5.96,7.29l-6.53,7.61l-5.7-6.4l-5.13,7.45
				C145.31,368.43,136.93,365.72,131.88,359.98z"/>
			<path class="st30" d="M114.72,415.65l-14.34,22.64c-2.08,3.28-0.59,7.65,3.06,8.98l41.87,15.23"/>
			<path class="st24" d="M143.55,478.23l1.75-12.63c0,0,21.56,6.22,22.94,7.38c1.38,1.15,5.3,5.26,5.3,5.26H143.55z"/>
			<line class="st3" x1="99.97" y1="277.03" x2="98.87" y2="284.16"/>
		</g>
		<line class="st3" x1="113.73" y1="238.09" x2="105.05" y2="236.7"/>
		<line class="st22" x1="329.93" y1="279.59" x2="328.59" y2="288.28"/>
		<line class="st22" x1="333.62" y1="284.63" x2="324.95" y2="283.24"/>
		<rect x="31.51" y="249.15" class="st3" width="6.99" height="6.99"/>
		
			<rect x="214.1" y="167.74" transform="matrix(0.7569 0.6536 -0.6536 0.7569 164.8145 -100.5821)" class="st31" width="6.99" height="6.99"/>
		<path class="st10" d="M299.13,433.64h-30.92c-1.91,0-3.45,1.55-3.45,3.45v20.22c0,4.54,1.38,8.97,3.95,12.72l3.78,5.5
			c1.16,1.69,3.08,2.7,5.13,2.7h12.09c2.07,0,4-1.03,5.15-2.74l4.44-6.58c2.14-3.18,3.29-6.92,3.29-10.75v-21.07
			C302.59,435.19,301.04,433.64,299.13,433.64z"/>
		<path class="st10" d="M279.73,462.98h-17.22c-5.82,0-10.56-4.73-10.56-10.56s4.74-10.56,10.56-10.56h17.22V462.98z M262.51,446.52
			c-3.25,0-5.9,2.65-5.9,5.9c0,3.25,2.65,5.9,5.9,5.9h12.57v-11.8H262.51z"/>
		
			<linearGradient id="SVGID_00000072964717424071342940000010910289991799948435_" gradientUnits="userSpaceOnUse" x1="280.2983" y1="404.6641" x2="291.3796" y2="404.6641">
			<stop  offset="0" style="stop-color:#919DFF"/>
			<stop  offset="1" style="stop-color:#FFE5F5"/>
		</linearGradient>
		<path style="fill:url(#SVGID_00000072964717424071342940000010910289991799948435_);" d="M284.79,420.56c0,0-6.36-5.07-3.94-13
			c2.42-7.94,7.6-13.17,3.94-18.79c0,0,9.19,1.36,5.87,10.66C287.34,408.74,281.97,414.54,284.79,420.56z"/>
		
			<linearGradient id="SVGID_00000126287309214167454730000005959925432395938966_" gradientUnits="userSpaceOnUse" x1="269.2557" y1="418.5112" x2="283.2956" y2="418.5112">
			<stop  offset="0" style="stop-color:#919DFF"/>
			<stop  offset="1" style="stop-color:#FFE5F5"/>
		</linearGradient>
		<path style="fill:url(#SVGID_00000126287309214167454730000005959925432395938966_);" d="M278.46,404.66c0,0-6.23,9.07,0,15.9
			c7.38,8.08,4.12,11.8,4.12,11.8s-2.28-3.59-8.36-7.57C268.89,421.3,264.9,409.91,278.46,404.66z"/>
	</g>
</g>
<g id="DESIGNED_BY_FREEPIK">
</g>
</svg>
